HIERARCHY
ROOT Hips
{
 OFFSET 0.000000 0.000000 0.000000
 CHANNELS 6 Xposition Yposition Zposition Yrotation Xrotation Zrotation
 JOINT Chest
 {
  OFFSET 0.000000 9.585900 0.002600
  CHANNELS 3 Yrotation Xrotation Zrotation
  JOINT Chest2
  {
   OFFSET 0.000000 9.601200 -0.005300
   CHANNELS 3 Yrotation Xrotation Zrotation
   JOINT Chest3
   {
    OFFSET 0.000000 9.561800 0.000000
    CHANNELS 3 Yrotation Xrotation Zrotation
    JOINT Chest4
    {
     OFFSET 0.000000 9.552100 0.000000
     CHANNELS 3 Yrotation Xrotation Zrotation
     JOINT Neck
     {
      OFFSET 0.000000 14.453000 0.000000
      CHANNELS 3 Yrotation Xrotation Zrotation
      JOINT Head
      {
       OFFSET 0.000000 8.936500 -0.011300
       CHANNELS 3 Yrotation Xrotation Zrotation
       End Site
       {
        OFFSET 0.000000 17.073600 -0.006000
       }
      }
     }
     JOINT RightCollar
     {
      OFFSET -2.921100 9.558500 0.000000
      CHANNELS 3 Yrotation Xrotation Zrotation
      JOINT RightShoulder
      {
       OFFSET -13.519700 0.000000 0.000000
       CHANNELS 3 Yrotation Xrotation Zrotation
       JOINT RightElbow
       {
        OFFSET 0.000000 -29.696600 0.000000
        CHANNELS 3 Yrotation Xrotation Zrotation
        JOINT RightWrist
        {
         OFFSET 0.000000 -24.004700 0.000000
         CHANNELS 3 Yrotation Xrotation Zrotation
         End Site
         {
          OFFSET 0.000000 -17.728500 0.000000
         }
        }
       }
      }
     }
     JOINT LeftCollar
     {
      OFFSET 2.921100 9.558500 0.000000
      CHANNELS 3 Yrotation Xrotation Zrotation
      JOINT LeftShoulder
      {
       OFFSET 13.519700 0.000000 0.000000
       CHANNELS 3 Yrotation Xrotation Zrotation
       JOINT LeftElbow
       {
        OFFSET 0.000000 -29.696600 0.000000
        CHANNELS 3 Yrotation Xrotation Zrotation
        JOINT LeftWrist
        {
         OFFSET 0.000000 -24.004700 0.000000
         CHANNELS 3 Yrotation Xrotation Zrotation
         End Site
         {
          OFFSET 0.000000 -17.728500 0.000000
         }
        }
       }
      }
     }
    }
   }
  }
 }
 JOINT RightHip
 {
  OFFSET -7.771700 -0.012900 -0.001300
  CHANNELS 3 Yrotation Xrotation Zrotation
  JOINT RightKnee
  {
   OFFSET 0.000000 -40.869800 0.001200
   CHANNELS 3 Yrotation Xrotation Zrotation
   JOINT RightAnkle
   {
    OFFSET 0.000000 -39.717900 0.002100
    CHANNELS 3 Yrotation Xrotation Zrotation
    JOINT RightToe
    {
     OFFSET 0.000000 -4.965400 11.033500
     CHANNELS 3 Yrotation Xrotation Zrotation
     End Site
     {
      OFFSET 0.000000 -1.423100 5.872300
     }
    }
   }
  }
 }
 JOINT LeftHip
 {
  OFFSET 7.771700 -0.012900 -0.001300
  CHANNELS 3 Yrotation Xrotation Zrotation
  JOINT LeftKnee
  {
   OFFSET 0.000000 -40.869800 0.001200
   CHANNELS 3 Yrotation Xrotation Zrotation
   JOINT LeftAnkle
   {
    OFFSET 0.000000 -39.717900 0.002100
    CHANNELS 3 Yrotation Xrotation Zrotation
    JOINT LeftToe
    {
     OFFSET 0.000000 -4.965400 11.033500
     CHANNELS 3 Yrotation Xrotation Zrotation
     End Site
     {
      OFFSET 0.000000 -1.423100 5.872300
     }
    }
   }
  }
 }
}
MOTION
Frames: 12
Frame Time: 0.008333
-19.704405 58.234638 71.681748 173.298730 -29.961860 -2.452945 5.906521 21.174387 5.300769 0.684808 3.001277 0.431541 1.141200 4.873909 0.723563 4.690339 18.140693 3.292320 -0.662171 15.137352 -1.015681 -0.847674 -7.672766 -1.652330 1.538157 -1.586019 -2.145921 -6.941692 -12.772806 -3.780225 -103.884168 -51.674941 99.240251 3.711748 -19.744201 -53.912872 -4.126956 -1.349913 -1.367634 27.260256 -2.876932 -4.989490 90.822810 -32.138231 -96.461205 10.393780 -18.124928 32.443760 10.257676 -40.772391 -2.281378 -4.871667 66.810212 -5.170352 4.312362 5.327730 7.739999 -0.329388 0.397035 -0.159519 -2.998727 -47.363274 5.254210 28.811409 58.396397 26.277901 -11.349840 39.443649 5.624275 0.321626 -19.558223 -6.032197
-19.705077 58.234794 71.681005 173.292371 -29.960812 -2.455220 5.902788 21.170560 5.299724 0.692331 3.003086 0.433593 1.129663 4.867165 0.721734 4.685281 18.138464 3.292246 -0.653618 15.134891 -1.030733 -0.838785 -7.667738 -1.659081 1.552322 -1.583318 -2.151736 -6.944123 -12.773672 -3.782424 -103.834932 -51.649073 99.214759 3.707191 -19.751984 -53.919025 -4.115663 -1.343374 -1.365265 27.258761 -2.876894 -4.985488 90.814878 -32.119284 -96.450822 10.444850 -18.120432 32.440752 10.255043 -40.774830 -2.277366 -4.854964 66.811732 -5.151102 4.309828 5.329249 7.734908 -0.326561 0.394634 -0.153904 -2.994179 -47.365904 5.253697 28.803417 58.403727 26.275181 -11.316965 39.431692 5.652201 0.303687 -19.553496 -6.042170
-19.709908 58.235129 71.678983 173.287813 -29.965716 -2.430501 5.894918 21.176509 5.274172 0.693470 3.003529 0.434141 1.126565 4.862548 0.722699 4.679667 18.133844 3.293770 -0.650436 15.136414 -1.041807 -0.830798 -7.697308 -1.708839 1.559394 -1.580728 -2.158223 -6.941955 -12.777077 -3.785694 -103.787973 -51.621881 99.188377 3.714517 -19.762801 -53.935853 -4.109499 -1.336525 -1.366273 27.258923 -2.873844 -4.985419 90.804503 -32.106132 -96.446010 10.480832 -18.121750 32.429543 10.273928 -40.818935 -2.295154 -4.878335 66.884931 -5.169433 4.238147 5.430739 7.680510 -0.244435 0.283121 -0.118248 -2.962628 -47.363802 5.215218 28.796164 58.409753 26.277238 -11.337485 39.424884 5.625401 0.326338 -19.549393 -6.038225
-19.719596 58.234284 71.677995 173.260163 -29.960599 -2.363693 5.896653 21.175367 5.216124 0.689063 3.000360 0.433423 1.129680 4.861403 0.725645 4.674800 18.129374 3.296953 -0.648223 15.143072 -1.050960 -0.829854 -7.708875 -1.726165 1.564635 -1.573783 -2.165448 -6.951793 -12.783330 -3.784092 -103.737755 -51.593629 99.173116 3.733149 -19.773955 -53.960130 -4.104637 -1.328481 -1.372373 27.249762 -2.879735 -4.972044 90.777474 -32.046601 -96.438821 10.473482 -18.140791 32.425167 10.339210 -40.898439 -2.358620 -4.897733 66.986226 -5.192508 4.179530 5.611745 7.633279 -0.163653 0.092894 -0.081419 -2.877906 -47.373884 5.129857 28.802773 58.410914 26.294711 -11.396516 39.424437 5.565379 0.365819 -19.550572 -6.021190
-19.717603 58.234668 71.677229 173.254387 -29.964744 -2.375223 5.906537 21.174275 5.235039 0.688365 2.999134 0.433727 1.123874 4.860038 0.726226 4.673576 18.129268 3.296725 -0.646371 15.136397 -1.061044 -0.828393 -7.699891 -1.729274 1.564117 -1.576318 -2.169991 -6.946082 -12.775933 -3.786943 -103.716856 -51.575340 99.170613 3.743177 -19.782415 -53.977297 -4.113065 -1.331457 -1.365407 27.241664 -2.891898 -4.953442 90.782314 -32.014072 -96.409755 10.487059 -18.141531 32.416861 10.326399 -40.896081 -2.335066 -4.894374 66.984905 -5.191382 4.180223 5.612697 7.631909 -0.165149 0.091620 -0.080140 -2.880558 -47.372842 5.143020 28.817150 58.415211 26.320421 -11.407989 39.407821 5.559921 0.368515 -19.540899 -6.024732
-19.716359 58.235163 71.676253 173.247917 -29.969815 -2.380202 5.908335 21.177519 5.243378 0.681233 2.991896 0.439448 1.126764 4.859489 0.724153 4.678859 18.137224 3.291733 -0.655888 15.113252 -1.067139 -0.816283 -7.694843 -1.753384 1.549976 -1.591839 -2.163850 -6.931063 -12.763497 -3.795977 -103.693272 -51.562441 99.163705 3.756100 -19.790148 -53.989358 -4.125740 -1.343176 -1.354623 27.245640 -2.888592 -4.951154 90.768742 -31.982973 -96.397659 10.478630 -18.154790 32.418841 10.319657 -40.892414 -2.323665 -4.883881 66.985671 -5.179168 4.183206 5.612714 7.626847 -0.163676 0.089707 -0.077240 -2.868673 -47.370871 5.141082 28.831547 58.417566 26.345362 -11.403313 39.394760 5.576765 0.362475 -19.534691 -6.035303
-19.712052 58.235481 71.676387 173.237077 -29.970500 -2.400871 5.914910 21.167383 5.275662 0.685257 2.993720 0.434965 1.124822 4.856272 0.724873 4.674791 18.134996 3.296262 -0.659153 15.105696 -1.082703 -0.812418 -7.712302 -1.805493 1.556388 -1.581041 -2.174706 -6.949569 -12.771602 -3.782260 -103.656562 -51.563806 99.156133 3.764848 -19.794333 -53.998712 -4.132347 -1.356192 -1.351449 27.249719 -2.873126 -4.949222 90.757783 -31.944028 -96.408507 10.497842 -18.167934 32.415999 10.301962 -40.894197 -2.280200 -4.906946 66.975437 -5.191134 4.152293 5.626597 7.596359 -0.129054 0.087152 -0.063267 -2.875981 -47.368377 5.165122 28.831903 58.415208 26.365174 -11.406124 39.376302 5.573106 0.362862 -19.519755 -6.043073
-19.714263 58.236319 71.674610 173.234405 -29.978023 -2.384688 5.908865 21.173816 5.261557 0.681743 2.989096 0.438032 1.122740 4.853371 0.725637 4.668697 18.129120 3.297018 -0.655525 15.114407 -1.094789 -0.810021 -7.721025 -1.834368 1.560242 -1.577771 -2.179621 -6.948721 -12.765172 -3.782223 -103.645279 -51.559318 99.156926 3.758710 -19.805212 -54.002397 -4.130998 -1.350745 -1.353881 27.246300 -2.874173 -4.945966 90.762656 -31.933693 -96.396818 10.518724 -18.173013 32.403315 10.315650 -40.885624 -2.311013 -4.896284 66.984584 -5.181077 4.191553 5.612033 7.623307 -0.164867 0.089425 -0.081199 -2.846179 -47.362860 5.130486 28.829162 58.416309 26.375989 -11.414734 39.373854 5.566074 0.371310 -19.516540 -6.047138
-19.710879 58.237072 71.674435 173.228181 -29.980759 -2.400166 5.918902 21.171695 5.283607 0.681047 2.988527 0.437993 1.121718 4.852107 0.726017 4.657640 18.118014 3.303767 -0.651154 15.123027 -1.110323 -0.808419 -7.730998 -1.865307 1.571870 -1.575154 -2.183642 -6.947079 -12.754838 -3.791749 -103.647290 -51.547910 99.163602 3.758672 -19.812771 -54.006945 -4.128096 -1.344853 -1.358597 27.244805 -2.876058 -4.941933 90.765406 -31.909095 -96.395622 10.520900 -18.180036 32.401390 10.308238 -40.884276 -2.285025 -4.920478 66.976962 -5.184923 4.158527 5.627101 7.590593 -0.130755 0.085133 -0.067508 -2.852328 -47.359175 5.144782 28.829811 58.414481 26.387858 -11.390089 39.368034 5.590694 0.357108 -19.513486 -6.061258
-19.706332 58.237790 71.674833 173.217771 -29.982037 -2.419635 5.932105 21.165624 5.312875 0.682737 2.990386 0.435823 1.120999 4.851125 0.726396 4.647557 18.104409 3.316856 -0.651717 15.127164 -1.134337 -0.806191 -7.736406 -1.895676 1.559247 -1.583820 -2.191369 -6.927095 -12.736636 -3.799961 -103.643963 -51.534645 99.165944 3.760123 -19.818387 -54.006551 -4.121749 -1.332500 -1.374265 27.240416 -2.884621 -4.933126 90.765315 -31.882190 -96.399240 10.521487 -18.187967 32.402125 10.294031 -40.878405 -2.249246 -4.925869 66.957196 -5.174285 4.132990 5.632712 7.562407 -0.107100 0.094326 -0.056480 -2.862995 -47.357671 5.170556 28.832016 58.412187 26.398143 -11.366662 39.372247 5.627085 0.346742 -19.519524 -6.085876
-19.705109 58.238539 71.674692 173.213640 -29.985219 -2.420496 5.936879 21.165236 5.322537 0.678246 2.982468 0.440613 1.118787 4.850042 0.725972 4.648191 18.115648 3.308571 -0.655800 15.116582 -1.141936 -0.804653 -7.743663 -1.925415 1.549428 -1.592273 -2.187507 -6.929515 -12.730855 -3.795468 -103.640260 -51.525962 99.174805 3.759426 -19.824842 -54.004125 -4.126546 -1.335065 -1.371141 27.236753 -2.893989 -4.924819 90.772982 -31.854615 -96.406717 10.515956 -18.187231 32.409368 10.293676 -40.875672 -2.245073 -4.918695 66.956391 -5.165204 4.133003 5.635910 7.559723 -0.107620 0.092538 -0.054372 -2.860833 -47.354485 5.171916 28.834350 58.410670 26.404924 -11.372736 39.374744 5.628982 0.350349 -19.522398 -6.093622
-19.692158 58.240877 71.674211 173.191703 -30.004642 -2.479995 5.979444 21.171151 5.401021 0.681078 2.983002 0.441768 1.118457 4.853127 0.722968 4.644743 18.105543 3.315890 -0.658827 15.114255 -1.157772 -0.802107 -7.738775 -1.938069 1.549489 -1.583102 -2.194725 -6.937732 -12.734802 -3.783842 -103.627828 -51.532266 99.172670 3.747274 -19.837562 -54.002387 -4.143107 -1.347403 -1.360568 27.252301 -2.871829 -4.927270 90.781827 -31.829723 -96.455013 10.484935 -18.188754 32.461058 10.247004 -40.858208 -2.138154 -4.914984 66.929814 -5.153867 4.125443 5.655583 7.545452 -0.105029 0.089234 -0.051015 -2.920361 -47.336302 5.276123 28.840264 58.414583 26.410848 -11.289674 39.402787 5.710748 0.296370 -19.558465 -6.124834
